<svg width="37" height="22" xmlns="http://www.w3.org/2000/svg" xmlns:xlink="http://www.w3.org/1999/xlink" xmlns:svgjs="http://svgjs.com/svgjs" viewBox="0 0.206 37 21.589" fill="#e6e6e6"><svg xmlns="http://www.w3.org/2000/svg" width="37" height="22" viewBox="2.002 1.999 35.995 21.002"><path paint-order="stroke fill markers" fill-rule="evenodd" d="M37.492 22.876c-.483.258-1.101.105-1.38-.342L19.188 3.402c-.279-.448-.113-1.02.37-1.277.483-.258 1.101-.105 1.38.342L37.862 21.6c.279.447.113 1.018-.37 1.276zm-34.984 0c.483.258 1.101.105 1.38-.342L20.812 3.402c.279-.448.113-1.02-.37-1.277-.483-.258-1.101-.105-1.38.342L2.138 21.6c-.279.447-.113 1.018.37 1.276z"/></svg></svg>