<svg width="33" height="33" xmlns="http://www.w3.org/2000/svg" xmlns:xlink="http://www.w3.org/1999/xlink" xmlns:svgjs="http://svgjs.com/svgjs" fill="#ebebeb"><svg xmlns="http://www.w3.org/2000/svg" width="33" height="33" viewBox="1 1 32 32"><path paint-order="stroke fill markers" fill-rule="evenodd" d="M17 1c8.837 0 16 7.164 16 16 0 8.837-7.163 16-16 16S1 25.837 1 17C1 8.164 8.163 1 17 1zM7 11h5.793c2.344 0 3.93.794 3.93 2.973 0 1.147-.604 1.95-1.674 2.441 1.501.41 2.26 1.508 2.26 2.965 0 2.376-2.122 3.392-4.345 3.392H7V11zm2.475 4.71h2.972c.948 0 1.655-.41 1.655-1.392 0-1.114-.897-1.345-1.861-1.345H9.475v2.736zm0 5.16h3.127c1.07 0 1.922-.327 1.922-1.54 0-1.196-.715-1.671-1.87-1.671h-3.18v3.21zm10.924-2.04c.069 1.475.827 2.418 2.188 2.418.983 0 1.88-.77 2.035-1.295h2.154C26.088 21.952 24.52 23 22.501 23c-2.81 0-4.576-1.835-4.576-4.455 0-2.54 1.87-4.473 4.576-4.473 3.034 0 4.5 2.154 4.327 4.758H20.4zm3.982-1.524c-.224-1.178-.76-1.48-1.949-1.48-1.551 0-1.999.826-2.033 1.48h3.982zm.774-3.942h-4.931V11.79h4.931v1.573z"/></svg></svg>