<svg width="33" height="33" xmlns="http://www.w3.org/2000/svg" xmlns:xlink="http://www.w3.org/1999/xlink" xmlns:svgjs="http://svgjs.com/svgjs" viewBox="0.5 0 32 33" fill="#ebebeb"><svg xmlns="http://www.w3.org/2000/svg" width="33" height="33" viewBox="1 1 32 33"><path paint-order="stroke fill markers" fill-rule="evenodd" d="M17 1c8.837 0 16 7.166 16 16.005 0 8.839-7.163 16.005-16 16.005S1 25.844 1 17.005C1 8.165 8.163 1 17 1zm-1.346 7.265c.787.674 2.429 2.091 2.429 4.786 0 2.623-1.437 3.864-2.873 5.033-.445.46-.958.958-.958 1.737 0 .78.513 1.205.89 1.524l1.23.993c1.507 1.31 2.874 2.516 2.874 4.963 0 3.331-3.113 6.7-8.997 6.7-4.96 0-7.354-2.447-7.354-5.07 0-1.276.615-3.084 2.634-4.325 2.12-1.347 4.995-1.524 6.533-1.63-.479-.638-1.025-1.312-1.025-2.41 0-.604.17-.958.342-1.383-.377.035-.753.07-1.095.07-3.626 0-5.679-2.8-5.679-5.564 0-1.631.719-3.439 2.19-4.75 1.95-1.666 4.275-1.95 6.123-1.95h7.046l-2.189 1.276h-2.12zm-2.429 15.739c-.273-.037-.445-.037-.786-.037-.308 0-2.155.072-3.592.568-.752.284-2.942 1.135-2.942 3.652 0 2.516 2.36 4.323 6.02 4.323 3.285 0 5.029-1.63 5.029-3.827 0-1.808-1.128-2.765-3.729-4.68zm.994-6.735c.785-.815.854-1.95.854-2.588 0-2.552-1.47-6.522-4.31-6.522-.89 0-1.847.46-2.395 1.17-.582.744-.753 1.701-.753 2.622 0 2.375 1.334 6.31 4.276 6.31.855 0 1.78-.425 2.328-.992zm8.687-10.27h2v8h-2V7zm-3 3h8v2h-8v-2z"/></svg></svg>