<svg width="33" height="33" xmlns="http://www.w3.org/2000/svg" xmlns:xlink="http://www.w3.org/1999/xlink" xmlns:svgjs="http://svgjs.com/svgjs" fill="#ebebeb"><svg xmlns="http://www.w3.org/2000/svg" width="33" height="33" viewBox="1 1 32 32"><path paint-order="stroke fill markers" fill-rule="evenodd" d="M17 1c8.837 0 16 7.164 16 16 0 8.837-7.163 16-16 16S1 25.837 1 17C1 8.164 8.163 1 17 1zM8.484 8.46a1.484 1.484 0 0 0-.476 1.108c0 .45.16.834.48 1.15a1.6 1.6 0 0 0 1.165.472c.442 0 .822-.155 1.14-.464.318-.31.477-.683.477-1.122 0-.444-.16-.823-.482-1.136A1.597 1.597 0 0 0 9.634 8c-.449 0-.832.154-1.15.46zM8 24h3.275V11.993H8V24zm5.73 0l3.258-.002V19.64c0-1.283.054-2.116.163-2.502.208-.74.582-1.319 1.12-1.738.54-.419 1.185-.628 1.937-.628.58 0 1.067.126 1.46.38.395.252.671.62.83 1.103.158.484.238 1.46.238 2.933v4.81H26v-7.56c0-1.42-.49-2.494-1.351-3.219-1.025-.854-2.035-1.281-3.504-1.281-.717 0-1.181.115-1.866.347-.684.231-1.431.718-2.274 1.309v-1.6H13.73V24z"/></svg></svg>