<svg width="23" height="39" xmlns="http://www.w3.org/2000/svg" xmlns:xlink="http://www.w3.org/1999/xlink" xmlns:svgjs="http://svgjs.com/svgjs" viewBox="0.202 0 22.596 39" fill="#665f60"><svg xmlns="http://www.w3.org/2000/svg" width="23" height="39" viewBox="1.992 1.999 22.017 38"><path paint-order="stroke fill markers" fill-rule="evenodd" d="M2.123 2.532c-.27.51-.11 1.163.358 1.457L22.54 21.856c.468.294 1.067.12 1.338-.391.27-.51.11-1.162-.359-1.457L3.461 2.142c-.468-.294-1.067-.12-1.338.39zm0 36.934c-.27-.51-.11-1.163.358-1.457L22.54 20.142c.468-.294 1.067-.12 1.338.39.27.51.11 1.163-.359 1.457L3.461 39.856c-.468.295-1.067.12-1.338-.39z"/></svg></svg>